<svg width="32" height="31" viewBox="0 0 32 31" fill="none" xmlns="http://www.w3.org/2000/svg">
<g clip-path="url(#clip0_122_1782)">
<path d="M30.0316 27.351H1.82586C0.817918 27.351 0 28.1683 0 29.1755C0 30.1827 0.817918 31.0001 1.82586 31.0001H30.0296C31.0375 31.0001 31.8554 30.1827 31.8554 29.1755C31.8554 28.1683 31.0375 27.351 30.0296 27.351H30.0316Z" fill="#1B3861"/>
<path d="M31.6902 15.7228C31.6902 23.9249 25.0353 30.5749 16.8272 30.5749C16.5504 30.5749 16.2737 30.5666 16.001 30.5522C23.827 30.1229 30.0378 23.6462 30.0378 15.7228C30.0378 7.79928 23.827 1.32262 16.001 0.893324C16.2737 0.878877 16.5504 0.870621 16.8272 0.870621C25.0353 0.870621 31.6902 7.52064 31.6902 15.7228Z" fill="#E6AA2E"/>
<path d="M15.1728 30.5749C23.3814 30.5749 30.0358 23.9254 30.0358 15.7228C30.0358 7.52015 23.3814 0.870621 15.1728 0.870621C6.96419 0.870621 0.309814 7.52015 0.309814 15.7228C0.309814 23.9254 6.96419 30.5749 15.1728 30.5749Z" fill="#F9C84F"/>
<path d="M15.1728 30.8865C6.80772 30.8865 0 24.0838 0 15.7228C0 7.36173 6.80772 0.561035 15.1728 0.561035C23.5379 0.561035 30.3456 7.36379 30.3456 15.7228C30.3456 24.0817 23.5379 30.8845 15.1728 30.8845V30.8865ZM15.1728 1.18022C7.14852 1.18022 0.619635 7.70434 0.619635 15.7228C0.619635 23.7412 7.14852 30.2653 15.1728 30.2653C23.1971 30.2653 29.7259 23.7412 29.7259 15.7228C29.7259 7.70434 23.1991 1.18022 15.1728 1.18022Z" fill="#1B3861"/>
<path d="M16.8272 30.8865C16.567 30.8865 16.2964 30.8783 16.001 30.8638C15.7057 30.8804 15.4351 30.8865 15.1749 30.8865C6.80772 30.8865 0 24.0838 0 15.7228C0 7.36173 6.80772 0.561035 15.1728 0.561035C15.4351 0.561035 15.7057 0.569291 15.999 0.583739C16.2923 0.567227 16.5628 0.561035 16.8251 0.561035C25.1923 0.561035 31.9979 7.36379 31.9979 15.7228C31.9979 24.0817 25.1902 30.8845 16.8251 30.8845L16.8272 30.8865ZM16.001 30.2426H16.0176C16.3088 30.2591 16.5732 30.2674 16.8272 30.2674C24.8515 30.2674 31.3804 23.7432 31.3804 15.7248C31.3804 7.7064 24.8515 1.18022 16.8272 1.18022C16.5711 1.18022 16.3067 1.18847 16.0176 1.20292H16.001H15.9845C15.6953 1.18641 15.431 1.18022 15.1749 1.18022C7.14852 1.18022 0.619635 7.70434 0.619635 15.7228C0.619635 23.7412 7.14852 30.2653 15.1728 30.2653C15.4268 30.2653 15.6912 30.257 15.9824 30.2426H15.999H16.001Z" fill="#1B3861"/>
<path d="M5.5125e-06 29.1755C5.5125e-06 30.1827 0.817923 31.0001 1.82586 31.0001H30.0296C31.0375 31.0001 31.8554 30.1827 31.8554 29.1755H-0.00205994H5.5125e-06Z" fill="#1B3861"/>
<path d="M15.1728 23.3222C10.9799 23.3222 7.56781 19.9126 7.56781 15.7228C7.56781 15.4957 7.7537 15.31 7.9809 15.31C8.2081 15.31 8.39399 15.4957 8.39399 15.7228C8.39399 19.4585 11.4343 22.4966 15.1728 22.4966C18.9113 22.4966 21.9516 19.4585 21.9516 15.7228C21.9516 15.4957 22.1375 15.31 22.3647 15.31C22.5919 15.31 22.7778 15.4957 22.7778 15.7228C22.7778 19.9126 19.3657 23.3222 15.1728 23.3222Z" fill="#1B3861"/>
<path d="M13.3511 15.6567C12.9524 15.6567 12.6282 15.3327 12.6282 14.9343V10.7734C12.6282 10.3751 12.9524 10.051 13.3511 10.051C13.7497 10.051 14.074 10.3751 14.074 10.7734V14.9343C14.074 15.3327 13.7497 15.6567 13.3511 15.6567Z" fill="#1B3861"/>
<path d="M16.9966 15.6567C16.598 15.6567 16.2737 15.3327 16.2737 14.9343V10.7734C16.2737 10.3751 16.598 10.051 16.9966 10.051C17.3952 10.051 17.7195 10.3751 17.7195 10.7734V14.9343C17.7195 15.3327 17.3952 15.6567 16.9966 15.6567Z" fill="#1B3861"/>
</g>
<defs>
<clipPath id="clip0_122_1782">
<rect width="32" height="30.439" fill="white" transform="translate(0 0.561035)"/>
</clipPath>
</defs>
</svg>
